<mxfile host="drawio.benjamin-hacker.de" agent="Mozilla/5.0 (Windows NT 10.0; Win64; x64; rv:137.0) Gecko/20100101 Firefox/137.0" version="26.2.2">
  <diagram name="Page-1" id="ZstSUzaG4R8C3Dj4YN9I">
    <mxGraphModel dx="1492" dy="802" grid="1" gridSize="10" guides="1" tooltips="1" connect="1" arrows="1" fold="1" page="1" pageScale="1" pageWidth="827" pageHeight="1169" math="0" shadow="0">
      <root>
        <mxCell id="0" />
        <mxCell id="1" parent="0" />
        <mxCell id="hgpdVAeGyUlOY-_fG9tA-1" value="" style="rounded=0;whiteSpace=wrap;html=1;" parent="1" vertex="1">
          <mxGeometry x="70" y="30" width="1190" height="1060" as="geometry" />
        </mxCell>
        <mxCell id="hgpdVAeGyUlOY-_fG9tA-2" value="Class diagramm - Recruiting Management System" style="text;html=1;align=center;verticalAlign=middle;whiteSpace=wrap;rounded=0;" parent="1" vertex="1">
          <mxGeometry x="20" y="30" width="1350" height="30" as="geometry" />
        </mxCell>
        <mxCell id="hgpdVAeGyUlOY-_fG9tA-3" value="JobPosting" style="swimlane;fontStyle=1;align=center;verticalAlign=top;childLayout=stackLayout;horizontal=1;startSize=26;horizontalStack=0;resizeParent=1;resizeParentMax=0;resizeLast=0;collapsible=1;marginBottom=0;whiteSpace=wrap;html=1;" parent="1" vertex="1">
          <mxGeometry x="120" y="460" width="220" height="502" as="geometry" />
        </mxCell>
        <mxCell id="hgpdVAeGyUlOY-_fG9tA-4" value="&lt;div&gt;- titel: string&lt;/div&gt;" style="text;strokeColor=none;fillColor=none;align=left;verticalAlign=top;spacingLeft=4;spacingRight=4;overflow=hidden;rotatable=0;points=[[0,0.5],[1,0.5]];portConstraint=eastwest;whiteSpace=wrap;html=1;" parent="hgpdVAeGyUlOY-_fG9tA-3" vertex="1">
          <mxGeometry y="26" width="220" height="26" as="geometry" />
        </mxCell>
        <mxCell id="hgpdVAeGyUlOY-_fG9tA-9" value="&lt;div&gt;- description: string&lt;/div&gt;" style="text;strokeColor=none;fillColor=none;align=left;verticalAlign=top;spacingLeft=4;spacingRight=4;overflow=hidden;rotatable=0;points=[[0,0.5],[1,0.5]];portConstraint=eastwest;whiteSpace=wrap;html=1;" parent="hgpdVAeGyUlOY-_fG9tA-3" vertex="1">
          <mxGeometry y="52" width="220" height="26" as="geometry" />
        </mxCell>
        <mxCell id="hgpdVAeGyUlOY-_fG9tA-90" value="&lt;div&gt;- deadline: Date&lt;/div&gt;" style="text;strokeColor=none;fillColor=none;align=left;verticalAlign=top;spacingLeft=4;spacingRight=4;overflow=hidden;rotatable=0;points=[[0,0.5],[1,0.5]];portConstraint=eastwest;whiteSpace=wrap;html=1;" parent="hgpdVAeGyUlOY-_fG9tA-3" vertex="1">
          <mxGeometry y="78" width="220" height="26" as="geometry" />
        </mxCell>
        <mxCell id="hgpdVAeGyUlOY-_fG9tA-55" value="&lt;div&gt;- department: Department&lt;/div&gt;" style="text;strokeColor=none;fillColor=none;align=left;verticalAlign=top;spacingLeft=4;spacingRight=4;overflow=hidden;rotatable=0;points=[[0,0.5],[1,0.5]];portConstraint=eastwest;whiteSpace=wrap;html=1;" parent="hgpdVAeGyUlOY-_fG9tA-3" vertex="1">
          <mxGeometry y="104" width="220" height="26" as="geometry" />
        </mxCell>
        <mxCell id="hgpdVAeGyUlOY-_fG9tA-91" value="&lt;div&gt;- status: JobPostingStatus&lt;/div&gt;" style="text;strokeColor=none;fillColor=none;align=left;verticalAlign=top;spacingLeft=4;spacingRight=4;overflow=hidden;rotatable=0;points=[[0,0.5],[1,0.5]];portConstraint=eastwest;whiteSpace=wrap;html=1;" parent="hgpdVAeGyUlOY-_fG9tA-3" vertex="1">
          <mxGeometry y="130" width="220" height="26" as="geometry" />
        </mxCell>
        <mxCell id="ZdY0S8lL--He6eKOkTfP-1" value="&lt;div&gt;- note: string&lt;/div&gt;" style="text;strokeColor=none;fillColor=none;align=left;verticalAlign=top;spacingLeft=4;spacingRight=4;overflow=hidden;rotatable=0;points=[[0,0.5],[1,0.5]];portConstraint=eastwest;whiteSpace=wrap;html=1;" vertex="1" parent="hgpdVAeGyUlOY-_fG9tA-3">
          <mxGeometry y="156" width="220" height="26" as="geometry" />
        </mxCell>
        <mxCell id="hgpdVAeGyUlOY-_fG9tA-5" value="" style="line;strokeWidth=1;fillColor=none;align=left;verticalAlign=middle;spacingTop=-1;spacingLeft=3;spacingRight=3;rotatable=0;labelPosition=right;points=[];portConstraint=eastwest;strokeColor=inherit;" parent="hgpdVAeGyUlOY-_fG9tA-3" vertex="1">
          <mxGeometry y="182" width="220" height="8" as="geometry" />
        </mxCell>
        <mxCell id="hgpdVAeGyUlOY-_fG9tA-6" value="+ getTitel(): String" style="text;strokeColor=none;fillColor=none;align=left;verticalAlign=top;spacingLeft=4;spacingRight=4;overflow=hidden;rotatable=0;points=[[0,0.5],[1,0.5]];portConstraint=eastwest;whiteSpace=wrap;html=1;" parent="hgpdVAeGyUlOY-_fG9tA-3" vertex="1">
          <mxGeometry y="190" width="220" height="26" as="geometry" />
        </mxCell>
        <mxCell id="hgpdVAeGyUlOY-_fG9tA-10" value="+ setTitel(String): Void" style="text;strokeColor=none;fillColor=none;align=left;verticalAlign=top;spacingLeft=4;spacingRight=4;overflow=hidden;rotatable=0;points=[[0,0.5],[1,0.5]];portConstraint=eastwest;whiteSpace=wrap;html=1;" parent="hgpdVAeGyUlOY-_fG9tA-3" vertex="1">
          <mxGeometry y="216" width="220" height="26" as="geometry" />
        </mxCell>
        <mxCell id="hgpdVAeGyUlOY-_fG9tA-11" value="+ getDescription(): String" style="text;strokeColor=none;fillColor=none;align=left;verticalAlign=top;spacingLeft=4;spacingRight=4;overflow=hidden;rotatable=0;points=[[0,0.5],[1,0.5]];portConstraint=eastwest;whiteSpace=wrap;html=1;" parent="hgpdVAeGyUlOY-_fG9tA-3" vertex="1">
          <mxGeometry y="242" width="220" height="26" as="geometry" />
        </mxCell>
        <mxCell id="hgpdVAeGyUlOY-_fG9tA-12" value="+ setDescription(String): Void" style="text;strokeColor=none;fillColor=none;align=left;verticalAlign=top;spacingLeft=4;spacingRight=4;overflow=hidden;rotatable=0;points=[[0,0.5],[1,0.5]];portConstraint=eastwest;whiteSpace=wrap;html=1;" parent="hgpdVAeGyUlOY-_fG9tA-3" vertex="1">
          <mxGeometry y="268" width="220" height="26" as="geometry" />
        </mxCell>
        <mxCell id="hgpdVAeGyUlOY-_fG9tA-92" value="+ setDeadline(Date): Void" style="text;strokeColor=none;fillColor=none;align=left;verticalAlign=top;spacingLeft=4;spacingRight=4;overflow=hidden;rotatable=0;points=[[0,0.5],[1,0.5]];portConstraint=eastwest;whiteSpace=wrap;html=1;" parent="hgpdVAeGyUlOY-_fG9tA-3" vertex="1">
          <mxGeometry y="294" width="220" height="26" as="geometry" />
        </mxCell>
        <mxCell id="hgpdVAeGyUlOY-_fG9tA-93" value="+ getDeadline(): Date" style="text;strokeColor=none;fillColor=none;align=left;verticalAlign=top;spacingLeft=4;spacingRight=4;overflow=hidden;rotatable=0;points=[[0,0.5],[1,0.5]];portConstraint=eastwest;whiteSpace=wrap;html=1;" parent="hgpdVAeGyUlOY-_fG9tA-3" vertex="1">
          <mxGeometry y="320" width="220" height="26" as="geometry" />
        </mxCell>
        <mxCell id="hgpdVAeGyUlOY-_fG9tA-89" value="+ getDepartment(): Department" style="text;strokeColor=none;fillColor=none;align=left;verticalAlign=top;spacingLeft=4;spacingRight=4;overflow=hidden;rotatable=0;points=[[0,0.5],[1,0.5]];portConstraint=eastwest;whiteSpace=wrap;html=1;" parent="hgpdVAeGyUlOY-_fG9tA-3" vertex="1">
          <mxGeometry y="346" width="220" height="26" as="geometry" />
        </mxCell>
        <mxCell id="hgpdVAeGyUlOY-_fG9tA-88" value="+ setDepartment(Department): Void" style="text;strokeColor=none;fillColor=none;align=left;verticalAlign=top;spacingLeft=4;spacingRight=4;overflow=hidden;rotatable=0;points=[[0,0.5],[1,0.5]];portConstraint=eastwest;whiteSpace=wrap;html=1;" parent="hgpdVAeGyUlOY-_fG9tA-3" vertex="1">
          <mxGeometry y="372" width="220" height="26" as="geometry" />
        </mxCell>
        <mxCell id="hgpdVAeGyUlOY-_fG9tA-104" value="+ getStatus(): JobPostingStatus" style="text;strokeColor=none;fillColor=none;align=left;verticalAlign=top;spacingLeft=4;spacingRight=4;overflow=hidden;rotatable=0;points=[[0,0.5],[1,0.5]];portConstraint=eastwest;whiteSpace=wrap;html=1;" parent="hgpdVAeGyUlOY-_fG9tA-3" vertex="1">
          <mxGeometry y="398" width="220" height="26" as="geometry" />
        </mxCell>
        <mxCell id="hgpdVAeGyUlOY-_fG9tA-103" value="+ setStatus(JobPostingStatus): Void" style="text;strokeColor=none;fillColor=none;align=left;verticalAlign=top;spacingLeft=4;spacingRight=4;overflow=hidden;rotatable=0;points=[[0,0.5],[1,0.5]];portConstraint=eastwest;whiteSpace=wrap;html=1;" parent="hgpdVAeGyUlOY-_fG9tA-3" vertex="1">
          <mxGeometry y="424" width="220" height="26" as="geometry" />
        </mxCell>
        <mxCell id="ZdY0S8lL--He6eKOkTfP-2" value="+ getNote(): string" style="text;strokeColor=none;fillColor=none;align=left;verticalAlign=top;spacingLeft=4;spacingRight=4;overflow=hidden;rotatable=0;points=[[0,0.5],[1,0.5]];portConstraint=eastwest;whiteSpace=wrap;html=1;" vertex="1" parent="hgpdVAeGyUlOY-_fG9tA-3">
          <mxGeometry y="450" width="220" height="26" as="geometry" />
        </mxCell>
        <mxCell id="ZdY0S8lL--He6eKOkTfP-3" value="+ setNote(string): Void" style="text;strokeColor=none;fillColor=none;align=left;verticalAlign=top;spacingLeft=4;spacingRight=4;overflow=hidden;rotatable=0;points=[[0,0.5],[1,0.5]];portConstraint=eastwest;whiteSpace=wrap;html=1;" vertex="1" parent="hgpdVAeGyUlOY-_fG9tA-3">
          <mxGeometry y="476" width="220" height="26" as="geometry" />
        </mxCell>
        <mxCell id="hgpdVAeGyUlOY-_fG9tA-13" value="HR Recruiter" style="swimlane;fontStyle=1;align=center;verticalAlign=top;childLayout=stackLayout;horizontal=1;startSize=26;horizontalStack=0;resizeParent=1;resizeParentMax=0;resizeLast=0;collapsible=1;marginBottom=0;whiteSpace=wrap;html=1;" parent="1" vertex="1">
          <mxGeometry x="540" y="410" width="200" height="34" as="geometry" />
        </mxCell>
        <mxCell id="hgpdVAeGyUlOY-_fG9tA-16" value="" style="line;strokeWidth=1;fillColor=none;align=left;verticalAlign=middle;spacingTop=-1;spacingLeft=3;spacingRight=3;rotatable=0;labelPosition=right;points=[];portConstraint=eastwest;strokeColor=inherit;" parent="hgpdVAeGyUlOY-_fG9tA-13" vertex="1">
          <mxGeometry y="26" width="200" height="8" as="geometry" />
        </mxCell>
        <mxCell id="hgpdVAeGyUlOY-_fG9tA-22" value="Hiring Manager" style="swimlane;fontStyle=1;align=center;verticalAlign=top;childLayout=stackLayout;horizontal=1;startSize=26;horizontalStack=0;resizeParent=1;resizeParentMax=0;resizeLast=0;collapsible=1;marginBottom=0;whiteSpace=wrap;html=1;" parent="1" vertex="1">
          <mxGeometry x="740" y="508" width="200" height="112" as="geometry" />
        </mxCell>
        <mxCell id="hgpdVAeGyUlOY-_fG9tA-23" value="&lt;div&gt;+&amp;nbsp;&lt;span class=&quot;rich-text-component css-1yjzpiw e1wnkr790&quot;&gt;department&lt;/span&gt;: Department&lt;/div&gt;" style="text;strokeColor=none;fillColor=none;align=left;verticalAlign=top;spacingLeft=4;spacingRight=4;overflow=hidden;rotatable=0;points=[[0,0.5],[1,0.5]];portConstraint=eastwest;whiteSpace=wrap;html=1;" parent="hgpdVAeGyUlOY-_fG9tA-22" vertex="1">
          <mxGeometry y="26" width="200" height="26" as="geometry" />
        </mxCell>
        <mxCell id="hgpdVAeGyUlOY-_fG9tA-24" value="" style="line;strokeWidth=1;fillColor=none;align=left;verticalAlign=middle;spacingTop=-1;spacingLeft=3;spacingRight=3;rotatable=0;labelPosition=right;points=[];portConstraint=eastwest;strokeColor=inherit;" parent="hgpdVAeGyUlOY-_fG9tA-22" vertex="1">
          <mxGeometry y="52" width="200" height="8" as="geometry" />
        </mxCell>
        <mxCell id="hgpdVAeGyUlOY-_fG9tA-25" value="+ getDepartment(): Department" style="text;strokeColor=none;fillColor=none;align=left;verticalAlign=top;spacingLeft=4;spacingRight=4;overflow=hidden;rotatable=0;points=[[0,0.5],[1,0.5]];portConstraint=eastwest;whiteSpace=wrap;html=1;" parent="hgpdVAeGyUlOY-_fG9tA-22" vertex="1">
          <mxGeometry y="60" width="200" height="26" as="geometry" />
        </mxCell>
        <mxCell id="hgpdVAeGyUlOY-_fG9tA-26" value="+ setDepartment(Department): Void" style="text;strokeColor=none;fillColor=none;align=left;verticalAlign=top;spacingLeft=4;spacingRight=4;overflow=hidden;rotatable=0;points=[[0,0.5],[1,0.5]];portConstraint=eastwest;whiteSpace=wrap;html=1;" parent="hgpdVAeGyUlOY-_fG9tA-22" vertex="1">
          <mxGeometry y="86" width="200" height="26" as="geometry" />
        </mxCell>
        <mxCell id="hgpdVAeGyUlOY-_fG9tA-27" value="&lt;div&gt;Applicant&lt;/div&gt;" style="swimlane;fontStyle=1;align=center;verticalAlign=top;childLayout=stackLayout;horizontal=1;startSize=26;horizontalStack=0;resizeParent=1;resizeParentMax=0;resizeLast=0;collapsible=1;marginBottom=0;whiteSpace=wrap;html=1;" parent="1" vertex="1">
          <mxGeometry x="1000" y="508" width="200" height="34" as="geometry" />
        </mxCell>
        <mxCell id="hgpdVAeGyUlOY-_fG9tA-29" value="" style="line;strokeWidth=1;fillColor=none;align=left;verticalAlign=middle;spacingTop=-1;spacingLeft=3;spacingRight=3;rotatable=0;labelPosition=right;points=[];portConstraint=eastwest;strokeColor=inherit;" parent="hgpdVAeGyUlOY-_fG9tA-27" vertex="1">
          <mxGeometry y="26" width="200" height="8" as="geometry" />
        </mxCell>
        <mxCell id="hgpdVAeGyUlOY-_fG9tA-32" value="Person" style="swimlane;fontStyle=1;align=center;verticalAlign=top;childLayout=stackLayout;horizontal=1;startSize=26;horizontalStack=0;resizeParent=1;resizeParentMax=0;resizeLast=0;collapsible=1;marginBottom=0;whiteSpace=wrap;html=1;" parent="1" vertex="1">
          <mxGeometry x="780" y="80" width="200" height="268" as="geometry" />
        </mxCell>
        <mxCell id="hgpdVAeGyUlOY-_fG9tA-33" value="- name: string" style="text;strokeColor=none;fillColor=none;align=left;verticalAlign=top;spacingLeft=4;spacingRight=4;overflow=hidden;rotatable=0;points=[[0,0.5],[1,0.5]];portConstraint=eastwest;whiteSpace=wrap;html=1;" parent="hgpdVAeGyUlOY-_fG9tA-32" vertex="1">
          <mxGeometry y="26" width="200" height="26" as="geometry" />
        </mxCell>
        <mxCell id="hgpdVAeGyUlOY-_fG9tA-42" value="&lt;div&gt;- eMail: string&lt;/div&gt;" style="text;strokeColor=none;fillColor=none;align=left;verticalAlign=top;spacingLeft=4;spacingRight=4;overflow=hidden;rotatable=0;points=[[0,0.5],[1,0.5]];portConstraint=eastwest;whiteSpace=wrap;html=1;" parent="hgpdVAeGyUlOY-_fG9tA-32" vertex="1">
          <mxGeometry y="52" width="200" height="26" as="geometry" />
        </mxCell>
        <mxCell id="hgpdVAeGyUlOY-_fG9tA-43" value="&lt;div&gt;- telephone: int&lt;/div&gt;" style="text;strokeColor=none;fillColor=none;align=left;verticalAlign=top;spacingLeft=4;spacingRight=4;overflow=hidden;rotatable=0;points=[[0,0.5],[1,0.5]];portConstraint=eastwest;whiteSpace=wrap;html=1;" parent="hgpdVAeGyUlOY-_fG9tA-32" vertex="1">
          <mxGeometry y="78" width="200" height="26" as="geometry" />
        </mxCell>
        <mxCell id="hgpdVAeGyUlOY-_fG9tA-34" value="" style="line;strokeWidth=1;fillColor=none;align=left;verticalAlign=middle;spacingTop=-1;spacingLeft=3;spacingRight=3;rotatable=0;labelPosition=right;points=[];portConstraint=eastwest;strokeColor=inherit;" parent="hgpdVAeGyUlOY-_fG9tA-32" vertex="1">
          <mxGeometry y="104" width="200" height="8" as="geometry" />
        </mxCell>
        <mxCell id="hgpdVAeGyUlOY-_fG9tA-35" value="+ getName(): String" style="text;strokeColor=none;fillColor=none;align=left;verticalAlign=top;spacingLeft=4;spacingRight=4;overflow=hidden;rotatable=0;points=[[0,0.5],[1,0.5]];portConstraint=eastwest;whiteSpace=wrap;html=1;" parent="hgpdVAeGyUlOY-_fG9tA-32" vertex="1">
          <mxGeometry y="112" width="200" height="26" as="geometry" />
        </mxCell>
        <mxCell id="hgpdVAeGyUlOY-_fG9tA-36" value="+ setName(String): Void" style="text;strokeColor=none;fillColor=none;align=left;verticalAlign=top;spacingLeft=4;spacingRight=4;overflow=hidden;rotatable=0;points=[[0,0.5],[1,0.5]];portConstraint=eastwest;whiteSpace=wrap;html=1;" parent="hgpdVAeGyUlOY-_fG9tA-32" vertex="1">
          <mxGeometry y="138" width="200" height="26" as="geometry" />
        </mxCell>
        <mxCell id="hgpdVAeGyUlOY-_fG9tA-48" value="+ getEMail(): String" style="text;strokeColor=none;fillColor=none;align=left;verticalAlign=top;spacingLeft=4;spacingRight=4;overflow=hidden;rotatable=0;points=[[0,0.5],[1,0.5]];portConstraint=eastwest;whiteSpace=wrap;html=1;" parent="hgpdVAeGyUlOY-_fG9tA-32" vertex="1">
          <mxGeometry y="164" width="200" height="26" as="geometry" />
        </mxCell>
        <mxCell id="hgpdVAeGyUlOY-_fG9tA-44" value="+ setEMail(String): Void" style="text;strokeColor=none;fillColor=none;align=left;verticalAlign=top;spacingLeft=4;spacingRight=4;overflow=hidden;rotatable=0;points=[[0,0.5],[1,0.5]];portConstraint=eastwest;whiteSpace=wrap;html=1;" parent="hgpdVAeGyUlOY-_fG9tA-32" vertex="1">
          <mxGeometry y="190" width="200" height="26" as="geometry" />
        </mxCell>
        <mxCell id="hgpdVAeGyUlOY-_fG9tA-46" value="+ getTelephone(): String" style="text;strokeColor=none;fillColor=none;align=left;verticalAlign=top;spacingLeft=4;spacingRight=4;overflow=hidden;rotatable=0;points=[[0,0.5],[1,0.5]];portConstraint=eastwest;whiteSpace=wrap;html=1;" parent="hgpdVAeGyUlOY-_fG9tA-32" vertex="1">
          <mxGeometry y="216" width="200" height="26" as="geometry" />
        </mxCell>
        <mxCell id="hgpdVAeGyUlOY-_fG9tA-45" value="+ setTelephone(String): Void" style="text;strokeColor=none;fillColor=none;align=left;verticalAlign=top;spacingLeft=4;spacingRight=4;overflow=hidden;rotatable=0;points=[[0,0.5],[1,0.5]];portConstraint=eastwest;whiteSpace=wrap;html=1;" parent="hgpdVAeGyUlOY-_fG9tA-32" vertex="1">
          <mxGeometry y="242" width="200" height="26" as="geometry" />
        </mxCell>
        <mxCell id="hgpdVAeGyUlOY-_fG9tA-39" value="Extends" style="endArrow=block;endSize=16;endFill=0;html=1;rounded=0;edgeStyle=orthogonalEdgeStyle;" parent="1" source="hgpdVAeGyUlOY-_fG9tA-13" target="hgpdVAeGyUlOY-_fG9tA-32" edge="1">
          <mxGeometry x="-0.3846" width="160" relative="1" as="geometry">
            <mxPoint x="550" y="410" as="sourcePoint" />
            <mxPoint x="710" y="410" as="targetPoint" />
            <Array as="points">
              <mxPoint x="640" y="290" />
            </Array>
            <mxPoint as="offset" />
          </mxGeometry>
        </mxCell>
        <mxCell id="hgpdVAeGyUlOY-_fG9tA-40" value="Extends" style="endArrow=block;endSize=16;endFill=0;html=1;rounded=0;edgeStyle=orthogonalEdgeStyle;" parent="1" source="hgpdVAeGyUlOY-_fG9tA-22" target="hgpdVAeGyUlOY-_fG9tA-32" edge="1">
          <mxGeometry width="160" relative="1" as="geometry">
            <mxPoint x="550" y="410" as="sourcePoint" />
            <mxPoint x="710" y="410" as="targetPoint" />
            <Array as="points">
              <mxPoint x="840" y="390" />
              <mxPoint x="840" y="390" />
            </Array>
          </mxGeometry>
        </mxCell>
        <mxCell id="hgpdVAeGyUlOY-_fG9tA-41" value="Extends" style="endArrow=block;endSize=16;endFill=0;html=1;rounded=0;edgeStyle=orthogonalEdgeStyle;" parent="1" source="hgpdVAeGyUlOY-_fG9tA-27" target="hgpdVAeGyUlOY-_fG9tA-32" edge="1">
          <mxGeometry width="160" relative="1" as="geometry">
            <mxPoint x="550" y="410" as="sourcePoint" />
            <mxPoint x="710" y="410" as="targetPoint" />
            <Array as="points">
              <mxPoint x="1100" y="290" />
            </Array>
          </mxGeometry>
        </mxCell>
        <mxCell id="hgpdVAeGyUlOY-_fG9tA-49" value="&lt;span class=&quot;rich-text-component css-1yjzpiw e1wnkr790&quot;&gt;Department&lt;/span&gt;" style="swimlane;fontStyle=1;align=center;verticalAlign=middle;childLayout=stackLayout;horizontal=1;startSize=29;horizontalStack=0;resizeParent=1;resizeParentMax=0;resizeLast=0;collapsible=0;marginBottom=0;html=1;whiteSpace=wrap;" parent="1" vertex="1">
          <mxGeometry x="480" y="680" width="140" height="104" as="geometry" />
        </mxCell>
        <mxCell id="hgpdVAeGyUlOY-_fG9tA-50" value="&amp;lt;&amp;lt;enumeration&amp;gt;&amp;gt;" style="text;html=1;strokeColor=none;fillColor=none;align=center;verticalAlign=middle;spacingLeft=4;spacingRight=4;overflow=hidden;rotatable=0;points=[[0,0.5],[1,0.5]];portConstraint=eastwest;whiteSpace=wrap;" parent="hgpdVAeGyUlOY-_fG9tA-49" vertex="1">
          <mxGeometry y="29" width="140" height="25" as="geometry" />
        </mxCell>
        <mxCell id="hgpdVAeGyUlOY-_fG9tA-51" value="&lt;div&gt;Departmen 1&lt;/div&gt;" style="text;html=1;strokeColor=none;fillColor=none;align=left;verticalAlign=middle;spacingLeft=4;spacingRight=4;overflow=hidden;rotatable=0;points=[[0,0.5],[1,0.5]];portConstraint=eastwest;whiteSpace=wrap;" parent="hgpdVAeGyUlOY-_fG9tA-49" vertex="1">
          <mxGeometry y="54" width="140" height="25" as="geometry" />
        </mxCell>
        <mxCell id="hgpdVAeGyUlOY-_fG9tA-52" value="&lt;div&gt;Departmen 2&lt;/div&gt;" style="text;html=1;strokeColor=none;fillColor=none;align=left;verticalAlign=middle;spacingLeft=4;spacingRight=4;overflow=hidden;rotatable=0;points=[[0,0.5],[1,0.5]];portConstraint=eastwest;whiteSpace=wrap;" parent="hgpdVAeGyUlOY-_fG9tA-49" vertex="1">
          <mxGeometry y="79" width="140" height="25" as="geometry" />
        </mxCell>
        <mxCell id="hgpdVAeGyUlOY-_fG9tA-53" value="Use" style="endArrow=open;endSize=12;dashed=1;html=1;rounded=0;edgeStyle=orthogonalEdgeStyle;" parent="1" source="hgpdVAeGyUlOY-_fG9tA-22" target="hgpdVAeGyUlOY-_fG9tA-49" edge="1">
          <mxGeometry width="160" relative="1" as="geometry">
            <mxPoint x="550" y="390" as="sourcePoint" />
            <mxPoint x="710" y="390" as="targetPoint" />
            <Array as="points">
              <mxPoint x="840" y="740" />
            </Array>
          </mxGeometry>
        </mxCell>
        <mxCell id="hgpdVAeGyUlOY-_fG9tA-54" value="Use" style="endArrow=open;endSize=12;dashed=1;html=1;rounded=0;edgeStyle=orthogonalEdgeStyle;" parent="1" source="hgpdVAeGyUlOY-_fG9tA-3" target="hgpdVAeGyUlOY-_fG9tA-49" edge="1">
          <mxGeometry width="160" relative="1" as="geometry">
            <mxPoint x="890" y="532" as="sourcePoint" />
            <mxPoint x="570" y="610" as="targetPoint" />
            <Array as="points">
              <mxPoint x="400" y="740" />
              <mxPoint x="400" y="740" />
            </Array>
          </mxGeometry>
        </mxCell>
        <mxCell id="hgpdVAeGyUlOY-_fG9tA-56" value="" style="endArrow=diamondThin;endFill=1;endSize=24;html=1;rounded=0;edgeStyle=orthogonalEdgeStyle;" parent="1" source="hgpdVAeGyUlOY-_fG9tA-3" target="hgpdVAeGyUlOY-_fG9tA-13" edge="1">
          <mxGeometry width="160" relative="1" as="geometry">
            <mxPoint x="550" y="440" as="sourcePoint" />
            <mxPoint x="710" y="440" as="targetPoint" />
            <Array as="points">
              <mxPoint x="640" y="530" />
            </Array>
          </mxGeometry>
        </mxCell>
        <mxCell id="hgpdVAeGyUlOY-_fG9tA-60" value="1" style="edgeLabel;html=1;align=center;verticalAlign=middle;resizable=0;points=[];" parent="hgpdVAeGyUlOY-_fG9tA-56" vertex="1" connectable="0">
          <mxGeometry x="0.8526" y="1" relative="1" as="geometry">
            <mxPoint x="9" y="-1" as="offset" />
          </mxGeometry>
        </mxCell>
        <mxCell id="hgpdVAeGyUlOY-_fG9tA-61" value="0...*" style="edgeLabel;html=1;align=center;verticalAlign=middle;resizable=0;points=[];" parent="hgpdVAeGyUlOY-_fG9tA-56" vertex="1" connectable="0">
          <mxGeometry x="-0.9033" y="-2" relative="1" as="geometry">
            <mxPoint x="2" y="-12" as="offset" />
          </mxGeometry>
        </mxCell>
        <mxCell id="hgpdVAeGyUlOY-_fG9tA-57" value="" style="endArrow=diamondThin;endFill=1;endSize=24;html=1;rounded=0;edgeStyle=orthogonalEdgeStyle;" parent="1" source="hgpdVAeGyUlOY-_fG9tA-3" target="hgpdVAeGyUlOY-_fG9tA-22" edge="1">
          <mxGeometry width="160" relative="1" as="geometry">
            <mxPoint x="550" y="440" as="sourcePoint" />
            <mxPoint x="710" y="440" as="targetPoint" />
            <Array as="points">
              <mxPoint x="530" y="600" />
              <mxPoint x="530" y="600" />
            </Array>
          </mxGeometry>
        </mxCell>
        <mxCell id="hgpdVAeGyUlOY-_fG9tA-62" value="0...*" style="edgeLabel;html=1;align=center;verticalAlign=middle;resizable=0;points=[];" parent="hgpdVAeGyUlOY-_fG9tA-57" vertex="1" connectable="0">
          <mxGeometry x="-0.9339" y="1" relative="1" as="geometry">
            <mxPoint x="9" y="-7" as="offset" />
          </mxGeometry>
        </mxCell>
        <mxCell id="hgpdVAeGyUlOY-_fG9tA-63" value="1" style="edgeLabel;html=1;align=center;verticalAlign=middle;resizable=0;points=[];" parent="hgpdVAeGyUlOY-_fG9tA-57" vertex="1" connectable="0">
          <mxGeometry x="0.9089" relative="1" as="geometry">
            <mxPoint x="-14" y="-9" as="offset" />
          </mxGeometry>
        </mxCell>
        <mxCell id="hgpdVAeGyUlOY-_fG9tA-68" value="JobApplication" style="swimlane;fontStyle=1;align=center;verticalAlign=top;childLayout=stackLayout;horizontal=1;startSize=26;horizontalStack=0;resizeParent=1;resizeParentMax=0;resizeLast=0;collapsible=1;marginBottom=0;whiteSpace=wrap;html=1;" parent="1" vertex="1">
          <mxGeometry x="300" y="100" width="240" height="268" as="geometry" />
        </mxCell>
        <mxCell id="hgpdVAeGyUlOY-_fG9tA-69" value="&lt;div&gt;- titel: string&lt;/div&gt;" style="text;strokeColor=none;fillColor=none;align=left;verticalAlign=top;spacingLeft=4;spacingRight=4;overflow=hidden;rotatable=0;points=[[0,0.5],[1,0.5]];portConstraint=eastwest;whiteSpace=wrap;html=1;" parent="hgpdVAeGyUlOY-_fG9tA-68" vertex="1">
          <mxGeometry y="26" width="240" height="26" as="geometry" />
        </mxCell>
        <mxCell id="hgpdVAeGyUlOY-_fG9tA-70" value="&lt;div&gt;- description: string&lt;/div&gt;" style="text;strokeColor=none;fillColor=none;align=left;verticalAlign=top;spacingLeft=4;spacingRight=4;overflow=hidden;rotatable=0;points=[[0,0.5],[1,0.5]];portConstraint=eastwest;whiteSpace=wrap;html=1;" parent="hgpdVAeGyUlOY-_fG9tA-68" vertex="1">
          <mxGeometry y="52" width="240" height="26" as="geometry" />
        </mxCell>
        <mxCell id="hgpdVAeGyUlOY-_fG9tA-71" value="&lt;div&gt;- documents: List&amp;lt;bytearray&amp;gt;&lt;/div&gt;" style="text;strokeColor=none;fillColor=none;align=left;verticalAlign=top;spacingLeft=4;spacingRight=4;overflow=hidden;rotatable=0;points=[[0,0.5],[1,0.5]];portConstraint=eastwest;whiteSpace=wrap;html=1;" parent="hgpdVAeGyUlOY-_fG9tA-68" vertex="1">
          <mxGeometry y="78" width="240" height="26" as="geometry" />
        </mxCell>
        <mxCell id="hgpdVAeGyUlOY-_fG9tA-72" value="" style="line;strokeWidth=1;fillColor=none;align=left;verticalAlign=middle;spacingTop=-1;spacingLeft=3;spacingRight=3;rotatable=0;labelPosition=right;points=[];portConstraint=eastwest;strokeColor=inherit;" parent="hgpdVAeGyUlOY-_fG9tA-68" vertex="1">
          <mxGeometry y="104" width="240" height="8" as="geometry" />
        </mxCell>
        <mxCell id="hgpdVAeGyUlOY-_fG9tA-73" value="+ getTitel(): String" style="text;strokeColor=none;fillColor=none;align=left;verticalAlign=top;spacingLeft=4;spacingRight=4;overflow=hidden;rotatable=0;points=[[0,0.5],[1,0.5]];portConstraint=eastwest;whiteSpace=wrap;html=1;" parent="hgpdVAeGyUlOY-_fG9tA-68" vertex="1">
          <mxGeometry y="112" width="240" height="26" as="geometry" />
        </mxCell>
        <mxCell id="hgpdVAeGyUlOY-_fG9tA-74" value="+ setTitel(String): Void" style="text;strokeColor=none;fillColor=none;align=left;verticalAlign=top;spacingLeft=4;spacingRight=4;overflow=hidden;rotatable=0;points=[[0,0.5],[1,0.5]];portConstraint=eastwest;whiteSpace=wrap;html=1;" parent="hgpdVAeGyUlOY-_fG9tA-68" vertex="1">
          <mxGeometry y="138" width="240" height="26" as="geometry" />
        </mxCell>
        <mxCell id="hgpdVAeGyUlOY-_fG9tA-75" value="+ getDescription(): String" style="text;strokeColor=none;fillColor=none;align=left;verticalAlign=top;spacingLeft=4;spacingRight=4;overflow=hidden;rotatable=0;points=[[0,0.5],[1,0.5]];portConstraint=eastwest;whiteSpace=wrap;html=1;" parent="hgpdVAeGyUlOY-_fG9tA-68" vertex="1">
          <mxGeometry y="164" width="240" height="26" as="geometry" />
        </mxCell>
        <mxCell id="hgpdVAeGyUlOY-_fG9tA-76" value="+ setDescription(String): Void" style="text;strokeColor=none;fillColor=none;align=left;verticalAlign=top;spacingLeft=4;spacingRight=4;overflow=hidden;rotatable=0;points=[[0,0.5],[1,0.5]];portConstraint=eastwest;whiteSpace=wrap;html=1;" parent="hgpdVAeGyUlOY-_fG9tA-68" vertex="1">
          <mxGeometry y="190" width="240" height="26" as="geometry" />
        </mxCell>
        <mxCell id="hgpdVAeGyUlOY-_fG9tA-78" value="+ getDocuments(): List&amp;lt;bytearray&amp;gt;" style="text;strokeColor=none;fillColor=none;align=left;verticalAlign=top;spacingLeft=4;spacingRight=4;overflow=hidden;rotatable=0;points=[[0,0.5],[1,0.5]];portConstraint=eastwest;whiteSpace=wrap;html=1;" parent="hgpdVAeGyUlOY-_fG9tA-68" vertex="1">
          <mxGeometry y="216" width="240" height="26" as="geometry" />
        </mxCell>
        <mxCell id="hgpdVAeGyUlOY-_fG9tA-77" value="+ setDocuments(List&amp;lt;bytearray&amp;gt;): Void" style="text;strokeColor=none;fillColor=none;align=left;verticalAlign=top;spacingLeft=4;spacingRight=4;overflow=hidden;rotatable=0;points=[[0,0.5],[1,0.5]];portConstraint=eastwest;whiteSpace=wrap;html=1;" parent="hgpdVAeGyUlOY-_fG9tA-68" vertex="1">
          <mxGeometry y="242" width="240" height="26" as="geometry" />
        </mxCell>
        <mxCell id="hgpdVAeGyUlOY-_fG9tA-79" value="" style="endArrow=diamondThin;endFill=1;endSize=24;html=1;rounded=0;edgeStyle=orthogonalEdgeStyle;" parent="1" source="hgpdVAeGyUlOY-_fG9tA-68" target="hgpdVAeGyUlOY-_fG9tA-3" edge="1">
          <mxGeometry width="160" relative="1" as="geometry">
            <mxPoint x="380" y="240" as="sourcePoint" />
            <mxPoint x="580" y="420" as="targetPoint" />
            <Array as="points">
              <mxPoint x="220" y="234" />
            </Array>
          </mxGeometry>
        </mxCell>
        <mxCell id="hgpdVAeGyUlOY-_fG9tA-80" value="1" style="edgeLabel;html=1;align=center;verticalAlign=middle;resizable=0;points=[];" parent="hgpdVAeGyUlOY-_fG9tA-79" vertex="1" connectable="0">
          <mxGeometry x="0.8526" y="1" relative="1" as="geometry">
            <mxPoint x="9" y="-12" as="offset" />
          </mxGeometry>
        </mxCell>
        <mxCell id="hgpdVAeGyUlOY-_fG9tA-81" value="1" style="edgeLabel;html=1;align=center;verticalAlign=middle;resizable=0;points=[];" parent="hgpdVAeGyUlOY-_fG9tA-79" vertex="1" connectable="0">
          <mxGeometry x="-0.9033" y="-2" relative="1" as="geometry">
            <mxPoint x="8" y="-12" as="offset" />
          </mxGeometry>
        </mxCell>
        <mxCell id="hgpdVAeGyUlOY-_fG9tA-85" value="" style="endArrow=diamondThin;endFill=1;endSize=24;html=1;rounded=0;edgeStyle=orthogonalEdgeStyle;" parent="1" source="hgpdVAeGyUlOY-_fG9tA-68" target="hgpdVAeGyUlOY-_fG9tA-27" edge="1">
          <mxGeometry width="160" relative="1" as="geometry">
            <mxPoint x="330" y="540" as="sourcePoint" />
            <mxPoint x="610" y="454" as="targetPoint" />
            <Array as="points">
              <mxPoint x="400" y="660" />
              <mxPoint x="1100" y="660" />
            </Array>
          </mxGeometry>
        </mxCell>
        <mxCell id="hgpdVAeGyUlOY-_fG9tA-86" value="1" style="edgeLabel;html=1;align=center;verticalAlign=middle;resizable=0;points=[];" parent="hgpdVAeGyUlOY-_fG9tA-85" vertex="1" connectable="0">
          <mxGeometry x="0.8526" y="1" relative="1" as="geometry">
            <mxPoint x="9" y="-54" as="offset" />
          </mxGeometry>
        </mxCell>
        <mxCell id="hgpdVAeGyUlOY-_fG9tA-87" value="0...*" style="edgeLabel;html=1;align=center;verticalAlign=middle;resizable=0;points=[];" parent="hgpdVAeGyUlOY-_fG9tA-85" vertex="1" connectable="0">
          <mxGeometry x="-0.9033" y="-2" relative="1" as="geometry">
            <mxPoint x="-18" y="-42" as="offset" />
          </mxGeometry>
        </mxCell>
        <mxCell id="hgpdVAeGyUlOY-_fG9tA-94" value="JobPostingStatus" style="swimlane;fontStyle=1;align=center;verticalAlign=middle;childLayout=stackLayout;horizontal=1;startSize=29;horizontalStack=0;resizeParent=1;resizeParentMax=0;resizeLast=0;collapsible=0;marginBottom=0;html=1;whiteSpace=wrap;" parent="1" vertex="1">
          <mxGeometry x="480" y="850" width="210" height="204" as="geometry" />
        </mxCell>
        <mxCell id="hgpdVAeGyUlOY-_fG9tA-95" value="&amp;lt;&amp;lt;enumeration&amp;gt;&amp;gt;" style="text;html=1;strokeColor=none;fillColor=none;align=center;verticalAlign=middle;spacingLeft=4;spacingRight=4;overflow=hidden;rotatable=0;points=[[0,0.5],[1,0.5]];portConstraint=eastwest;whiteSpace=wrap;" parent="hgpdVAeGyUlOY-_fG9tA-94" vertex="1">
          <mxGeometry y="29" width="210" height="25" as="geometry" />
        </mxCell>
        <mxCell id="hgpdVAeGyUlOY-_fG9tA-96" value="DRAFT" style="text;html=1;strokeColor=none;fillColor=none;align=left;verticalAlign=middle;spacingLeft=4;spacingRight=4;overflow=hidden;rotatable=0;points=[[0,0.5],[1,0.5]];portConstraint=eastwest;whiteSpace=wrap;" parent="hgpdVAeGyUlOY-_fG9tA-94" vertex="1">
          <mxGeometry y="54" width="210" height="25" as="geometry" />
        </mxCell>
        <mxCell id="hgpdVAeGyUlOY-_fG9tA-97" value="QA" style="text;html=1;strokeColor=none;fillColor=none;align=left;verticalAlign=middle;spacingLeft=4;spacingRight=4;overflow=hidden;rotatable=0;points=[[0,0.5],[1,0.5]];portConstraint=eastwest;whiteSpace=wrap;" parent="hgpdVAeGyUlOY-_fG9tA-94" vertex="1">
          <mxGeometry y="79" width="210" height="25" as="geometry" />
        </mxCell>
        <mxCell id="hgpdVAeGyUlOY-_fG9tA-98" value="PUBLISHED" style="text;html=1;strokeColor=none;fillColor=none;align=left;verticalAlign=middle;spacingLeft=4;spacingRight=4;overflow=hidden;rotatable=0;points=[[0,0.5],[1,0.5]];portConstraint=eastwest;whiteSpace=wrap;" parent="hgpdVAeGyUlOY-_fG9tA-94" vertex="1">
          <mxGeometry y="104" width="210" height="25" as="geometry" />
        </mxCell>
        <mxCell id="hgpdVAeGyUlOY-_fG9tA-99" value="SCREENING_OF_APPLICATIONS" style="text;html=1;strokeColor=none;fillColor=none;align=left;verticalAlign=middle;spacingLeft=4;spacingRight=4;overflow=hidden;rotatable=0;points=[[0,0.5],[1,0.5]];portConstraint=eastwest;whiteSpace=wrap;" parent="hgpdVAeGyUlOY-_fG9tA-94" vertex="1">
          <mxGeometry y="129" width="210" height="25" as="geometry" />
        </mxCell>
        <mxCell id="hgpdVAeGyUlOY-_fG9tA-100" value="INVITATION_SENT" style="text;html=1;strokeColor=none;fillColor=none;align=left;verticalAlign=middle;spacingLeft=4;spacingRight=4;overflow=hidden;rotatable=0;points=[[0,0.5],[1,0.5]];portConstraint=eastwest;whiteSpace=wrap;" parent="hgpdVAeGyUlOY-_fG9tA-94" vertex="1">
          <mxGeometry y="154" width="210" height="25" as="geometry" />
        </mxCell>
        <mxCell id="hgpdVAeGyUlOY-_fG9tA-101" value="ARCHIVED" style="text;html=1;strokeColor=none;fillColor=none;align=left;verticalAlign=middle;spacingLeft=4;spacingRight=4;overflow=hidden;rotatable=0;points=[[0,0.5],[1,0.5]];portConstraint=eastwest;whiteSpace=wrap;" parent="hgpdVAeGyUlOY-_fG9tA-94" vertex="1">
          <mxGeometry y="179" width="210" height="25" as="geometry" />
        </mxCell>
        <mxCell id="hgpdVAeGyUlOY-_fG9tA-102" value="Use" style="endArrow=open;endSize=12;dashed=1;html=1;rounded=0;edgeStyle=orthogonalEdgeStyle;" parent="1" source="hgpdVAeGyUlOY-_fG9tA-3" target="hgpdVAeGyUlOY-_fG9tA-94" edge="1">
          <mxGeometry width="160" relative="1" as="geometry">
            <mxPoint x="330" y="750" as="sourcePoint" />
            <mxPoint x="490" y="750" as="targetPoint" />
            <Array as="points">
              <mxPoint x="400" y="910" />
              <mxPoint x="400" y="910" />
            </Array>
          </mxGeometry>
        </mxCell>
      </root>
    </mxGraphModel>
  </diagram>
</mxfile>
